{
  "accessors": [
    {
      "bufferView": 1,
      "componentType": 5126,
      "count": 260,
      "max": [
        1.048930048942566,
        1.2100000381469727,
        1.75
      ],
      "min": [
        -1.2100000381469727,
        -1.2100000381469727,
        -1.6895500421524048
      ],
      "type": "VEC3"
    },
    {
      "bufferView": 1,
      "byteOffset": 3120,
      "componentType": 5126,
      "count": 260,
      "max": [
        0.9999991655349731,
        0.9983500242233276,
        1.0
      ],
      "min": [
        -0.9983500242233276,
        -0.9983500242233276,
        -1.0
      ],
      "type": "VEC3"
    },
    {
      "bufferView": 0,
      "componentType": 5125,
      "count": 1236,
      "type": "SCALAR"
    },
    {
      "bufferView": 1,
      "byteOffset": 6240,
      "componentType": 5126,
      "count": 282,
      "max": [
        0.7483400106430054,
        0.11225000023841858,
        -0.5032899975776672
      ],
      "min": [
        -0.7483400106430054,
        -0.11225000023841858,
        -9.836779594421387
      ],
      "type": "VEC3"
    },
    {
      "bufferView": 1,
      "byteOffset": 9624,
      "componentType": 5126,
      "count": 282,
      "max": [
        1.0,
        1.0,
        1.0
      ],
      "min": [
        -1.0,
        -1.0,
        -1.0
      ],
      "type": "VEC3"
    },
    {
      "bufferView": 0,
      "byteOffset": 4944,
      "componentType": 5125,
      "count": 516,
      "type": "SCALAR"
    }
  ],
  "asset": {
    "extras": {
      "author": "Jiří Kuba (https://sketchfab.com/kuba.jirka)",
      "license": "CC-BY-4.0 (http://creativecommons.org/licenses/by/4.0/)",
      "source": "https://sketchfab.com/3d-models/led-light-b962a42c45cc428b8c03cad469c3e42d",
      "title": "LED light"
    },
    "generator": "Sketchfab-12.68.0",
    "version": "2.0"
  },
  "bufferViews": [
    {
      "buffer": 0,
      "byteLength": 7008,
      "name": "floatBufferViews",
      "target": 34963
    },
    {
      "buffer": 0,
      "byteLength": 13008,
      "byteOffset": 7008,
      "byteStride": 12,
      "name": "floatBufferViews",
      "target": 34962
    }
  ],
  "buffers": [
    {
      "byteLength": 20016,
      "uri": "led.bin"
    }
  ],
  "materials": [
    {
      "alphaMode": "BLEND",
      "doubleSided": true,
      "emissiveFactor": [
        1.0,
        0.0792909705,
        0.0817204146
      ],
      "name": "LedMaterial",
      "pbrMetallicRoughness": {
        "baseColorFactor": [
          1.0,
          0.052860647,
          0.0544802764,
          0.8
        ],
        "roughnessFactor": 0.2909679878
      }
    },
    {
      "doubleSided": true,
      "name": "IronMaterial",
      "pbrMetallicRoughness": {
        "baseColorFactor": [
          0.3108125627,
          0.3108125627,
          0.3108125627,
          1.0
        ],
        "metallicFactor": 0.5322027439,
        "roughnessFactor": 0.0
      }
    }
  ],
  "meshes": [
    {
      "name": "Cylinder_0",
      "primitives": [
        {
          "attributes": {
            "NORMAL": 1,
            "POSITION": 0
          },
          "indices": 2,
          "material": 0,
          "mode": 4
        }
      ]
    },
    {
      "name": "Cylinder_1",
      "primitives": [
        {
          "attributes": {
            "NORMAL": 4,
            "POSITION": 3
          },
          "indices": 5,
          "material": 1,
          "mode": 4
        }
      ]
    }
  ],
  "nodes": [
    {
      "children": [
        1
      ],
      "matrix": [
        1.0,
        0.0,
        0.0,
        0.0,
        0.0,
        2.220446049250313e-16,
        -1.0,
        0.0,
        0.0,
        1.0,
        2.220446049250313e-16,
        0.0,
        0.0,
        0.0,
        0.0,
        1.0
      ],
      "name": "Sketchfab_model"
    },
    {
      "children": [
        2
      ],
      "name": "Root"
    },
    {
      "children": [
        3,
        4
      ],
      "name": "Cylinder"
    },
    {
      "mesh": 0,
      "name": "Cylinder_0"
    },
    {
      "mesh": 1,
      "name": "Cylinder_1"
    }
  ],
  "scene": 0,
  "scenes": [
    {
      "name": "Sketchfab_Scene",
      "nodes": [
        0
      ]
    }
  ]
}
